<?xml version="1.0" encoding="UTF-8"?>
<!DOCTYPE svg PUBLIC "-//W3C//DTD SVG 1.1//EN" "http://www.w3.org/Graphics/SVG/1.1/DTD/svg11.dtd">
<!-- Creator: CorelDRAW X7 -->
<svg xmlns="http://www.w3.org/2000/svg" xml:space="preserve" width="17.61mm" height="17.61mm" version="1.1" style="shape-rendering:geometricPrecision; text-rendering:geometricPrecision; image-rendering:optimizeQuality; fill-rule:evenodd; clip-rule:evenodd"
viewBox="0 0 370 370"
 xmlns:xlink="http://www.w3.org/1999/xlink">
 <defs>
  <style type="text/css">
   <![CDATA[
    .fil0 {fill:#716ACA}
    .fil1 {fill:#716ACA;fill-rule:nonzero}
   ]]>
  </style>
 </defs>
 <g id="Capa_x0020_1">
  <metadata id="CorelCorpID_0Corel-Layer"/>
  <path class="fil0" d="M219 328c-134,21 -200,-19 -191,-107l23 13c3,54 47,80 131,73l37 21z"/>
  <path class="fil1" d="M370 0l0 28 0 314 0 28 -28 0 -314 0 -28 0 0 -28 0 -314 0 -28 28 0 314 0 28 0zm-342 342l314 0 0 -314 -314 0 0 314z"/>
  <path class="fil0" d="M154 132c-32,2 -52,27 -53,53l0 2 25 1c0,-1 0,-3 0,-4 3,-19 19,-32 37,-33 4,0 7,-3 9,-6 1,-4 2,-8 3,-13 2,-10 5,-15 11,-24 20,-23 57,-23 78,-3 6,5 9,11 12,18 1,4 5,7 9,6 25,-2 46,-5 60,19 12,-5 16,-15 16,-26 -20,-20 -47,-17 -69,-14 -15,-47 -86,-61 -120,-20 -17,21 -13,30 -18,44z"/>
  <path class="fil0" d="M266 321c-65,-146 -147,-186 -229,-122l22 12c60,-37 118,-8 166,88l41 22z"/>
  <polygon class="fil0" points="22,229 20,199 179,284 "/>
 </g>
</svg>
