<?xml version="1.0" encoding="UTF-8"?>
<!DOCTYPE svg PUBLIC "-//W3C//DTD SVG 1.1//EN" "http://www.w3.org/Graphics/SVG/1.1/DTD/svg11.dtd">
<!-- Creator: CorelDRAW X7 -->
<svg xmlns="http://www.w3.org/2000/svg" xml:space="preserve" width="37.4336mm" height="32.3541mm" version="1.1" style="shape-rendering:geometricPrecision; text-rendering:geometricPrecision; image-rendering:optimizeQuality; fill-rule:evenodd; clip-rule:evenodd"
viewBox="0 0 1353 1169"
 xmlns:xlink="http://www.w3.org/1999/xlink">
 <defs>
  <style type="text/css">
   <![CDATA[
    .fil0 {fill:#716ACA}
    .fil2 {fill:#373435;fill-rule:nonzero}
    .fil1 {fill:#716ACA;fill-rule:nonzero}
   ]]>
  </style>
 </defs>
 <g id="Capa_x0020_1">
  <metadata id="CorelCorpID_0Corel-Layer"/>
  <path class="fil0" d="M734 563c-230,36 -342,-32 -328,-184l39 22c6,94 82,139 226,127l63 35z"/>
  <path class="fil1" d="M995 0l0 49 0 539 0 48 -49 0 -539 0 -49 0 0 -48 0 -539 0 -49 49 0 539 0 49 0zm-588 588l539 0 0 -539 -539 0 0 539z"/>
  <path class="fil0" d="M623 228c-55,2 -90,46 -90,91l0 2 42 3c0,-3 0,-5 0,-8 5,-32 32,-55 64,-57 6,0 12,-4 14,-10 3,-7 4,-14 6,-22 3,-17 8,-26 20,-41 32,-40 97,-40 134,-5 9,8 15,19 19,30 2,8 9,12 17,11 42,-4 78,-9 102,33 21,-8 27,-27 27,-45 -34,-35 -81,-29 -118,-25 -26,-81 -148,-104 -205,-34 -30,36 -23,51 -32,77z"/>
  <path class="fil0" d="M815 552c-111,-252 -251,-320 -394,-210l39 21c102,-63 202,-14 285,151l70 38z"/>
  <polygon class="fil0" points="396,394 393,342 666,488 "/>
  <path class="fil2" d="M33 1140l21 0c0,1 0,1 0,2 0,2 0,3 0,3 0,8 -2,13 -6,17 -5,4 -11,6 -19,6 -4,0 -8,0 -12,-1 -3,-2 -6,-4 -9,-6 -3,-3 -5,-6 -6,-9 -1,-3 -2,-7 -2,-11 0,-4 1,-8 2,-11 2,-3 4,-6 6,-9 3,-2 6,-4 10,-5 3,-2 7,-2 11,-2 4,0 8,0 12,2 3,1 6,4 9,7l-7 4c-2,-2 -4,-3 -6,-4 -2,-1 -5,-2 -8,-2 -6,0 -10,2 -14,6 -4,3 -6,8 -6,14 0,6 2,11 6,14 4,4 8,6 14,6 5,0 9,-1 12,-4 3,-2 5,-5 5,-9l0 -1 -13 0 0 -7zm31 27l0 -52 30 0 0 7 -22 0 0 13 22 0 0 8 -22 0 0 16 22 0 0 8 -30 0zm37 -10l7 -4c1,3 2,5 4,6 2,1 4,2 7,2 2,0 4,-1 6,-3 1,-1 2,-3 2,-5 0,-3 -2,-6 -8,-8 0,-1 -1,-1 -1,-1 -6,-3 -10,-5 -12,-8 -2,-2 -3,-5 -3,-8 0,-4 1,-8 4,-10 3,-3 7,-4 12,-4 4,0 7,0 10,2 3,1 5,4 6,6l-7 4c-1,-2 -3,-3 -4,-4 -1,-1 -3,-1 -4,-1 -3,0 -5,1 -6,2 -1,1 -2,3 -2,5 0,3 3,6 9,8 1,1 1,1 1,1 6,2 9,5 11,7 2,2 3,5 3,8 0,5 -1,9 -5,12 -3,3 -7,4 -13,4 -4,0 -8,-1 -11,-3 -3,-2 -5,-5 -6,-8zm63 -35l0 45 -9 0 0 -45 -15 0 0 -7 38 0 0 7 -14 0zm21 45l0 -52 9 0 0 52 -9 0zm68 -26c0,-3 0,-5 -1,-7 -1,-3 -3,-5 -5,-7 -2,-2 -4,-3 -6,-4 -3,-1 -5,-1 -8,-1 -2,0 -5,0 -7,1 -3,1 -5,2 -7,4 -2,2 -3,4 -4,7 -1,2 -2,4 -2,7 0,3 1,5 2,8 1,2 2,4 4,6 2,2 4,3 7,4 2,1 5,2 7,2 3,0 5,-1 8,-2 2,-1 4,-2 6,-4 2,-2 4,-4 5,-6 1,-3 1,-5 1,-8zm9 0c0,4 0,7 -2,11 -1,3 -3,6 -6,8 -3,3 -6,5 -10,6 -3,2 -7,2 -11,2 -4,0 -7,0 -11,-2 -4,-1 -7,-3 -9,-6 -3,-2 -5,-5 -7,-8 -1,-4 -2,-7 -2,-11 0,-4 1,-7 2,-10 2,-4 4,-7 7,-9 2,-3 6,-5 9,-6 4,-2 7,-2 11,-2 4,0 8,0 11,2 4,1 7,3 10,6 3,2 5,5 6,9 2,3 2,6 2,10zm-34 -31l7 -10 8 0 -10 10 -5 0zm45 57l0 -54 34 32c1,1 2,2 3,3 1,1 2,2 3,3l0 -36 8 0 0 54 -35 -32c-1,-1 -2,-2 -3,-3 -1,-1 -2,-2 -2,-3l0 36 -8 0zm93 -8l7 0c4,0 7,0 9,0 2,-1 4,-2 6,-3 2,-2 3,-4 4,-6 1,-3 2,-6 2,-9 0,-3 -1,-6 -2,-9 -1,-2 -2,-4 -4,-6 -2,-1 -4,-2 -6,-3 -2,0 -5,-1 -10,-1l-3 0 -3 0 0 37zm-9 8l0 -52 12 0c7,0 13,0 16,1 3,1 6,2 8,4 4,2 6,5 8,9 1,3 2,7 2,12 0,5 -1,9 -2,12 -2,4 -4,7 -8,9 -2,2 -5,3 -8,4 -3,1 -8,1 -14,1l-2 0 -12 0zm103 -26c0,-3 -1,-5 -2,-7 -1,-3 -2,-5 -4,-7 -2,-2 -4,-3 -6,-4 -3,-1 -5,-1 -8,-1 -3,0 -5,0 -8,1 -2,1 -4,2 -6,4 -2,2 -4,4 -5,7 -1,2 -1,4 -1,7 0,3 0,5 1,8 1,2 3,4 5,6 2,2 4,3 6,4 3,1 5,2 8,2 3,0 5,-1 7,-2 3,-1 5,-2 7,-4 2,-2 3,-4 4,-6 1,-3 2,-5 2,-8zm9 0c0,4 -1,7 -2,11 -2,3 -4,6 -7,8 -2,3 -5,5 -9,6 -4,2 -7,2 -11,2 -4,0 -8,0 -11,-2 -4,-1 -7,-3 -10,-6 -3,-2 -5,-5 -6,-8 -2,-4 -2,-7 -2,-11 0,-4 0,-7 2,-10 1,-4 3,-7 6,-9 3,-3 6,-5 10,-6 3,-2 7,-2 11,-2 4,0 8,0 11,2 4,1 7,3 9,6 3,2 5,5 7,9 1,3 2,6 2,10zm54 -13c-3,-2 -5,-4 -8,-5 -3,-1 -6,-2 -9,-2 -6,0 -11,2 -14,6 -4,4 -6,8 -6,14 0,6 2,10 5,14 4,4 9,6 14,6 3,0 6,-1 9,-2 3,-1 6,-3 9,-5l0 10c-3,1 -5,2 -8,3 -3,1 -6,1 -9,1 -4,0 -8,0 -12,-2 -3,-1 -6,-3 -9,-5 -3,-3 -5,-6 -6,-9 -2,-4 -2,-7 -2,-11 0,-4 0,-7 2,-11 1,-3 3,-6 6,-9 3,-2 6,-4 9,-5 4,-2 8,-2 12,-2 3,0 6,0 9,1 3,1 6,2 8,4l0 9zm11 -13l8 0 0 32c0,4 2,8 4,10 2,2 5,4 10,4 4,0 8,-2 10,-4 2,-2 4,-6 4,-10l0 -32 8 0 0 32c0,7 -1,13 -5,16 -4,4 -10,5 -17,5 -8,0 -13,-1 -17,-5 -4,-3 -5,-9 -5,-16l0 -32zm101 26c0,0 0,-1 0,-3 -1,-2 -1,-3 -1,-4 0,1 -1,3 -1,4 0,1 -1,2 -1,3l-15 28 -14 -28c-1,-1 -1,-3 -2,-4 0,-1 0,-2 -1,-3 0,1 0,2 0,4 0,1 0,2 -1,3l-6 26 -8 0 13 -54 16 33c1,0 1,1 1,2 1,1 2,3 2,5 1,-2 2,-4 3,-6 0,-1 0,-1 0,-1l16 -33 13 54 -8 0 -6 -26zm21 26l0 -52 31 0 0 7 -22 0 0 13 22 0 0 8 -22 0 0 16 22 0 0 8 -31 0zm41 0l0 -54 35 32c0,1 1,2 2,3 1,1 2,2 3,3l0 -36 9 0 0 54 -36 -32c-1,-1 -2,-2 -2,-3 -1,-1 -2,-2 -3,-3l0 36 -8 0zm79 -45l0 45 -9 0 0 -45 -15 0 0 -7 38 0 0 7 -14 0zm27 25l15 0 -6 -12c0,-1 0,-2 -1,-3 0,-1 0,-2 -1,-3 0,1 0,2 -1,3 0,1 0,2 -1,3l-5 12zm24 20l-6 -13 -21 0 -7 13 -9 0 26 -54 27 54 -10 0zm15 0l0 -52 9 0 0 44 19 0 0 8 -28 0zm59 0l0 -52 9 0 0 52 -9 0zm21 0l0 -54 35 32c1,1 2,2 3,3 1,1 2,2 3,3l0 -36 8 0 0 54 -35 -32c-1,-1 -2,-2 -3,-3 -1,-1 -2,-2 -2,-3l0 36 -9 0zm79 -45l0 45 -9 0 0 -45 -14 0 0 -7 38 0 0 7 -15 0zm21 45l0 -52 31 0 0 7 -22 0 0 13 22 0 0 8 -22 0 0 16 22 0 0 8 -31 0zm41 0l0 -52 9 0 0 44 20 0 0 8 -29 0zm36 0l0 -52 9 0 0 52 -9 0zm52 -27l21 0c0,1 0,1 0,2 0,2 0,3 0,3 0,8 -2,13 -6,17 -5,4 -11,6 -19,6 -4,0 -8,0 -12,-1 -3,-2 -6,-4 -9,-6 -2,-3 -4,-6 -6,-9 -1,-3 -2,-7 -2,-11 0,-4 1,-8 2,-11 2,-3 4,-6 6,-9 3,-2 6,-4 10,-5 3,-2 7,-2 11,-2 5,0 8,0 12,2 3,1 6,4 9,7l-7 4c-1,-2 -4,-3 -6,-4 -2,-1 -5,-2 -8,-2 -5,0 -10,2 -14,6 -4,3 -6,8 -6,14 0,6 2,11 6,14 4,4 9,6 14,6 6,0 10,-1 12,-4 3,-2 5,-5 5,-9l0 -1 -13 0 0 -7zm31 27l0 -52 30 0 0 7 -21 0 0 13 21 0 0 8 -21 0 0 16 21 0 0 8 -30 0zm40 0l0 -54 35 32c1,1 2,2 3,3 1,1 2,2 3,3l0 -36 8 0 0 54 -35 -32c-1,-1 -2,-2 -3,-3 -1,-1 -2,-2 -3,-3l0 36 -8 0zm79 -45l0 45 -9 0 0 -45 -14 0 0 -7 37 0 0 7 -14 0zm21 45l0 -52 31 0 0 7 -22 0 0 13 22 0 0 8 -22 0 0 16 22 0 0 8 -31 0z"/>
  <path class="fil2" d="M1 1034l0 -300 48 0 0 256 109 0 0 44 -157 0zm359 0l0 -300 167 0 0 42 -118 0 0 75 118 0 0 42 -118 0 0 97 118 0 0 44 -167 0zm449 -118l83 0 -31 -68c-1,-4 -3,-10 -5,-15 -2,-6 -4,-12 -6,-19 -2,6 -3,13 -5,18 -2,6 -4,11 -6,16l-30 68zm134 118l-34 -77 -118 0 -35 77 -51 0 145 -311 144 311 -51 0zm242 0l0 -300 167 0 0 42 -118 0 0 74 118 0 0 43 -118 0 0 141 -49 0z"/>
 </g>
</svg>
