<?xml version="1.0" encoding="UTF-8"?>
<!DOCTYPE svg PUBLIC "-//W3C//DTD SVG 1.1//EN" "http://www.w3.org/Graphics/SVG/1.1/DTD/svg11.dtd">
<!-- Creator: CorelDRAW X7 -->
<svg xmlns="http://www.w3.org/2000/svg" xml:space="preserve" width="27.5344mm" height="7.8229mm" version="1.1" style="shape-rendering:geometricPrecision; text-rendering:geometricPrecision; image-rendering:optimizeQuality; fill-rule:evenodd; clip-rule:evenodd"
viewBox="0 0 521 148"
 xmlns:xlink="http://www.w3.org/1999/xlink">
 <defs>
  <style type="text/css">
   <![CDATA[
    .fil0 {fill:#FEFEFE}
    .fil1 {fill:#FEFEFE;fill-rule:nonzero}
   ]]>
  </style>
 </defs>
 <g id="Capa_x0020_1">
  <metadata id="CorelCorpID_0Corel-Layer"/>
  <path class="fil0" d="M148 0l0 11 0 126 0 11 -11 0 -126 0 -11 0 0 -11 0 -126 0 -11 11 0 126 0 11 0zm-137 81l61 33 -52 -18c3,20 21,29 53,27l14 8c-46,7 -72,-4 -76,-30l0 36 126 0 0 -80c-6,-7 -14,-6 -23,-5 -2,0 -3,-1 -4,-3 -1,-3 -2,-5 -4,-7 -9,-8 -24,-8 -32,1 -2,4 -3,6 -4,10 0,2 -1,3 -1,5 -1,1 -2,2 -4,2 -5,1 -10,4 -13,8 20,4 38,24 54,60l-16 -8c-19,-39 -43,-50 -66,-36l-9 -4c9,-7 18,-11 27,-12 2,-8 9,-15 19,-15 3,-6 1,-10 8,-18 13,-16 42,-11 48,8 6,-1 13,-2 20,1l0 -33 -126 0 0 70z"/>
  <path class="fil1" d="M214 116l5 0c0,0 0,0 0,0 0,1 0,1 0,1 0,2 -1,3 -2,4 -1,1 -2,2 -4,2 -1,0 -2,-1 -3,-1 -1,0 -1,-1 -2,-1 -1,-1 -1,-1 -1,-2 -1,-1 -1,-2 -1,-3 0,-1 0,-2 1,-2 0,-1 0,-2 1,-2 1,-1 1,-1 2,-2 1,0 2,0 3,0 1,0 2,0 3,0 0,1 1,1 2,2l-2 1c0,0 -1,-1 -1,-1 -1,0 -1,0 -2,0 -1,0 -3,0 -3,1 -1,1 -2,2 -2,3 0,2 1,3 2,4 0,0 2,1 3,1 1,0 2,0 3,-1 0,-1 1,-1 1,-2l0 0 -3 0 0 -2zm7 6l0 -12 7 0 0 2 -5 0 0 3 5 0 0 2 -5 0 0 3 5 0 0 2 -7 0zm9 -2l1 -1c0,1 1,1 1,1 1,1 1,1 2,1 0,0 1,0 1,-1 1,0 1,-1 1,-1 0,-1 -1,-1 -2,-2 0,0 0,0 -1,0 -1,-1 -2,-1 -2,-2 -1,0 -1,-1 -1,-2 0,-1 0,-2 1,-2 1,-1 2,-1 3,-1 1,0 2,0 2,0 1,1 1,1 1,2l-1 1c0,-1 -1,-1 -1,-1 0,0 -1,0 -1,0 -1,0 -1,0 -1,0 -1,0 -1,1 -1,1 0,1 1,1 2,2 0,0 1,0 1,0 1,1 2,1 2,2 1,0 1,1 1,2 0,1 -1,2 -1,3 -1,0 -2,1 -3,1 -1,0 -2,-1 -3,-1 -1,-1 -1,-1 -1,-2zm14 -8l0 10 -2 0 0 -10 -3 0 0 -2 9 0 0 2 -4 0zm5 10l0 -12 2 0 0 12 -2 0zm16 -6c0,0 0,-1 0,-2 -1,0 -1,-1 -1,-1 -1,0 -1,-1 -2,-1 0,0 -1,0 -2,0 0,0 -1,0 -1,0 -1,0 -1,1 -2,1 0,0 -1,1 -1,1 0,1 0,2 0,2 0,1 0,1 0,2 0,0 1,1 1,1 1,1 1,1 2,1 0,1 1,1 1,1 1,0 2,0 2,-1 1,0 1,0 2,-1 0,0 0,-1 1,-1 0,-1 0,-1 0,-2zm2 0c0,1 0,2 0,3 -1,0 -1,1 -2,2 0,0 -1,1 -2,1 -1,0 -2,1 -3,1 -1,0 -1,-1 -2,-1 -1,0 -2,-1 -2,-1 -1,-1 -2,-2 -2,-2 0,-1 0,-2 0,-3 0,-1 0,-1 0,-2 0,-1 1,-2 2,-2 0,-1 1,-1 2,-2 1,0 1,0 2,0 1,0 2,0 3,0 1,1 2,1 2,2 1,0 1,1 2,2 0,1 0,1 0,2zm-8 -7l2 -2 2 0 -3 2 -1 0zm11 13l0 -12 8 7c0,0 0,0 0,1 0,0 1,0 1,1l0 -9 2 0 0 13 -8 -8c-1,0 -1,0 -1,0 0,-1 0,-1 -1,-1l0 8 -1 0zm21 -2l2 0c1,0 2,0 2,0 0,0 1,0 1,0 1,-1 1,-1 1,-2 1,0 1,-1 1,-2 0,-1 0,-1 -1,-2 0,0 0,-1 -1,-1 0,-1 -1,-1 -1,-1 -1,0 -1,0 -2,0l-1 0 -1 0 0 8zm-2 2l0 -12 3 0c2,0 3,0 4,0 0,1 1,1 2,1 0,1 1,1 1,2 1,1 1,2 1,3 0,1 0,2 -1,3 0,1 -1,2 -1,2 -1,1 -2,1 -2,1 -1,0 -2,0 -4,0l0 0 -3 0zm24 -6c0,0 0,-1 0,-2 -1,0 -1,-1 -1,-1 -1,0 -1,-1 -2,-1 0,0 -1,0 -2,0 0,0 -1,0 -1,0 -1,0 -1,1 -2,1 0,0 -1,1 -1,1 0,1 0,2 0,2 0,1 0,1 0,2 0,0 1,1 1,1 1,1 1,1 2,1 0,1 1,1 1,1 1,0 2,0 2,-1 1,0 1,0 2,-1 0,0 0,-1 1,-1 0,-1 0,-1 0,-2zm2 0c0,1 0,2 0,3 -1,0 -1,1 -2,2 0,0 -1,1 -2,1 -1,0 -2,1 -3,1 -1,0 -1,-1 -2,-1 -1,0 -2,-1 -2,-1 -1,-1 -2,-2 -2,-2 0,-1 0,-2 0,-3 0,-1 0,-1 0,-2 0,-1 1,-2 2,-2 0,-1 1,-1 2,-2 1,0 1,0 2,0 1,0 2,0 3,0 1,1 2,1 2,2 1,0 1,1 2,2 0,1 0,1 0,2zm13 -3c-1,0 -2,-1 -2,-1 -1,0 -1,0 -2,0 -2,0 -3,0 -4,1 0,1 -1,2 -1,3 0,2 1,3 1,3 1,1 2,2 4,2 0,0 1,0 2,-1 0,0 1,0 2,-1l0 2c-1,1 -1,1 -2,1 -1,0 -1,1 -2,1 -1,0 -2,-1 -3,-1 -1,0 -1,-1 -2,-1 -1,-1 -1,-2 -2,-2 0,-1 0,-2 0,-3 0,-1 0,-2 0,-2 1,-1 1,-2 2,-2 1,-1 1,-1 2,-2 1,0 2,0 3,0 0,0 1,0 2,0 1,0 1,1 2,1l0 2zm2 -3l2 0 0 7c0,2 0,2 1,3 1,0 1,1 2,1 1,0 2,-1 3,-1 0,-1 1,-1 1,-3l0 -7 2 0 0 8c0,1 -1,3 -2,3 -1,1 -2,2 -4,2 -1,0 -3,-1 -4,-2 0,0 -1,-2 -1,-3l0 -8zm24 6c0,0 0,0 0,-1 0,0 0,0 0,0 -1,0 -1,0 -1,0 0,1 0,1 0,1l-3 7 -4 -7c0,0 0,0 0,-1 0,0 0,0 0,0 0,0 0,0 0,0 0,1 0,1 -1,1l-1 6 -2 0 3 -12 4 7c0,0 0,1 0,1 0,0 0,0 1,1 0,0 0,-1 0,-1 0,-1 0,-1 0,-1l4 -7 3 12 -2 0 -1 -6zm5 6l0 -12 7 0 0 2 -5 0 0 3 5 0 0 2 -5 0 0 3 5 0 0 2 -7 0zm9 0l0 -12 8 7c0,0 1,0 1,1 0,0 0,0 1,1l0 -9 1 0 0 13 -8 -8c0,0 0,0 0,0 -1,-1 -1,-1 -1,-1l0 8 -2 0zm18 -10l0 10 -2 0 0 -10 -3 0 0 -2 9 0 0 2 -4 0zm7 5l3 0 -1 -2c0,0 0,-1 0,-1 0,0 0,0 0,-1 -1,1 -1,1 -1,1 0,0 0,1 0,1l-1 2zm5 5l-1 -3 -5 0 -1 3 -3 0 6 -12 7 12 -3 0zm4 0l0 -12 2 0 0 10 4 0 0 2 -6 0zm14 0l0 -12 2 0 0 12 -2 0zm5 0l0 -12 8 7c0,0 0,0 0,1 0,0 1,0 1,1l0 -9 2 0 0 13 -8 -8c-1,0 -1,0 -1,0 0,-1 0,-1 -1,-1l0 8 -1 0zm18 -10l0 10 -2 0 0 -10 -4 0 0 -2 9 0 0 2 -3 0zm5 10l0 -12 7 0 0 2 -5 0 0 3 5 0 0 2 -5 0 0 3 5 0 0 2 -7 0zm9 0l0 -12 2 0 0 10 5 0 0 2 -7 0zm9 0l0 -12 2 0 0 12 -2 0zm12 -6l5 0c0,0 0,0 0,0 0,1 0,1 0,1 0,2 -1,3 -2,4 -1,1 -2,2 -4,2 -1,0 -2,-1 -3,-1 -1,0 -2,-1 -2,-1 -1,-1 -1,-1 -1,-2 -1,-1 -1,-2 -1,-3 0,-1 0,-2 1,-2 0,-1 0,-2 1,-2 1,-1 1,-1 2,-2 1,0 2,0 3,0 1,0 2,0 2,0 1,1 2,1 3,2l-2 1c0,0 -1,-1 -1,-1 -1,0 -1,0 -2,0 -2,0 -3,0 -4,1 0,1 -1,2 -1,3 0,2 1,3 1,4 1,0 2,1 4,1 1,0 2,0 3,-1 0,-1 1,-1 1,-2l0 0 -3 0 0 -2zm7 6l0 -12 7 0 0 2 -5 0 0 3 5 0 0 2 -5 0 0 3 5 0 0 2 -7 0zm9 0l0 -12 8 7c1,0 1,0 1,1 0,0 0,0 1,1l0 -9 2 0 0 13 -9 -8c0,0 0,0 0,0 0,-1 -1,-1 -1,-1l0 8 -2 0zm19 -10l0 10 -3 0 0 -10 -3 0 0 -2 9 0 0 2 -3 0zm4 10l0 -12 8 0 0 2 -5 0 0 3 5 0 0 2 -5 0 0 3 5 0 0 2 -8 0z"/>
  <path class="fil1" d="M206 91l0 -69 12 0 0 59 25 0 0 10 -37 0zm84 0l0 -69 39 0 0 9 -28 0 0 18 28 0 0 10 -28 0 0 22 28 0 0 10 -39 0zm104 -27l19 0 -7 -16c0,-1 0,-2 -1,-3 0,-2 -1,-3 -1,-5 -1,2 -1,3 -1,4 -1,2 -1,3 -2,4l-7 16zm31 27l-8 -18 -27 0 -8 18 -12 0 34 -72 33 72 -12 0zm57 0l0 -69 38 0 0 9 -27 0 0 18 27 0 0 10 -27 0 0 32 -11 0z"/>
 </g>
</svg>
